<svg width="33" height="37" viewBox="0 0 33 37" fill="none" xmlns="http://www.w3.org/2000/svg">
<rect x="1.18302" y="-1.18302" width="30.634" height="30.634" rx="4.7321" transform="matrix(1 0 0 -1 0 34.1701)" stroke="white" stroke-width="2.36605"/>
<rect width="3.39317" height="3.38046" transform="matrix(-1 0 0 1 14.5947 18.8633)" fill="#D9D9D9"/>
<path d="M10.6071 20.0415C10.6071 23.2994 13.258 25.9404 16.5281 25.9404C19.7983 25.9404 22.4492 23.2994 22.4492 20.0415C22.4492 16.7836 19.7983 14.1426 16.5281 14.1426C13.258 14.1426 10.6071 16.7836 10.6071 20.0415Z" fill="white"/>
<path d="M14.1428 20.0398C14.1428 21.3438 15.2039 22.4009 16.5128 22.4009C17.8217 22.4009 18.8828 21.3438 18.8828 20.0398C18.8828 18.7358 17.8217 17.6787 16.5128 17.6787C15.2039 17.6787 14.1428 18.7358 14.1428 20.0398Z" fill="#BE0000"/>
<path d="M27.1074 2.98103C27.1074 1.33465 25.7728 0 24.1264 0H8.87416C7.22779 0 5.89314 1.33465 5.89314 2.98103V3.53571H27.1074V2.98103Z" fill="white"/>
<path d="M24.75 2.35728C24.75 1.70638 24.2223 1.17871 23.5714 1.17871H9.42857C8.77767 1.17871 8.25 1.70638 8.25 2.35728C8.25 3.00819 8.77766 3.53585 9.42857 3.53585H23.5714C24.2223 3.53585 24.75 3.00819 24.75 2.35728Z" fill="black"/>
</svg>
